<svg xmlns="http://www.w3.org/2000/svg" viewBox="0 0 100 100" style="background-color: #fec715;">
  <g transform="rotate(-15 50 50)">
    <rect x="29" y="27" width="46" height="58" rx="10" fill="#0f182b" />
    <rect x="23" y="19" width="46" height="58" rx="10" fill="#f9389e" stroke="#0f182b" stroke-width="7" stroke-linejoin="round" />
    
    <polygon points="34,31 37,28 40,32 43,28 46,32 49,28 52,32 55,28 58,31 58,69 55,72 52,68 49,72 46,68 43,72 40,68 37,72 34,69" fill="#ffffff" />
    
    <line x1="39" y1="41" x2="53" y2="41" stroke="#f9389e" stroke-width="4" stroke-linecap="round" />
    <line x1="39" y1="50" x2="53" y2="50" stroke="#f9389e" stroke-width="4" stroke-linecap="round" />
    <line x1="39" y1="59" x2="53" y2="59" stroke="#f9389e" stroke-width="4" stroke-linecap="round" />
  </g>
</svg>
